<svg width="17" height="17" viewBox="0 0 17 17" fill="none" xmlns="http://www.w3.org/2000/svg">
<path d="M15.39 13.1338C15.39 13.3953 15.3319 13.664 15.2084 13.9254C15.0849 14.1869 14.9252 14.4338 14.7145 14.6662C14.3587 15.0584 13.9665 15.3417 13.5235 15.5232C13.0877 15.7048 12.6156 15.7992 12.1073 15.7992C11.3665 15.7992 10.5748 15.6249 9.73963 15.269C8.90443 14.9132 8.06923 14.4338 7.24128 13.831C6.40608 13.221 5.61445 12.5455 4.85914 11.7975C4.11109 11.0422 3.43566 10.2505 2.83286 9.42261C2.23733 8.59467 1.75799 7.76673 1.40938 6.94605C1.06078 6.11811 0.886475 5.32648 0.886475 4.57116C0.886475 4.0773 0.973626 3.60523 1.14793 3.16947C1.32223 2.72645 1.59821 2.31975 1.98313 1.95661C2.44794 1.49907 2.95633 1.27393 3.49376 1.27393C3.69712 1.27393 3.90047 1.3175 4.08204 1.40465C4.27086 1.49181 4.43791 1.62253 4.56863 1.81136L6.25357 4.18624C6.38429 4.36781 6.47871 4.53485 6.54407 4.69463C6.60943 4.84714 6.64575 4.99966 6.64575 5.13765C6.64575 5.31195 6.59491 5.48626 6.49323 5.6533C6.39882 5.82034 6.26083 5.99464 6.08652 6.16894L5.53456 6.74269C5.45467 6.82258 5.41836 6.917 5.41836 7.0332C5.41836 7.0913 5.42562 7.14214 5.44015 7.20024C5.46194 7.25834 5.48373 7.30192 5.49825 7.34549C5.62898 7.58516 5.85412 7.89745 6.17368 8.27511C6.5005 8.65277 6.8491 9.03769 7.22676 9.42261C7.61894 9.80753 7.9966 10.1634 8.38152 10.4902C8.75918 10.8098 9.07147 11.0277 9.3184 11.1584C9.35471 11.1729 9.39829 11.1947 9.44913 11.2165C9.50723 11.2383 9.56533 11.2455 9.63069 11.2455C9.75416 11.2455 9.84857 11.202 9.92846 11.1221L10.4804 10.5774C10.662 10.3958 10.8363 10.2578 11.0033 10.1707C11.1704 10.069 11.3374 10.0181 11.519 10.0181C11.657 10.0181 11.8022 10.0472 11.962 10.1126C12.1218 10.1779 12.2888 10.2723 12.4704 10.3958L14.8743 12.1025C15.0631 12.2332 15.1939 12.3858 15.2738 12.5673C15.3464 12.7489 15.39 12.9305 15.39 13.1338Z" stroke="#0A0A0C" stroke-width="1.5" stroke-miterlimit="10"/>
</svg>
