<svg width="60" height="60" viewBox="0 0 60 60" fill="none" xmlns="http://www.w3.org/2000/svg">
<path d="M7.5 55H52.5" stroke="#E8E8E8" stroke-width="4" stroke-linecap="round" stroke-linejoin="round"/>
<path d="M13.9999 20.9497H10C8.625 20.9497 7.5 22.0747 7.5 23.4497V44.9997C7.5 46.3747 8.625 47.4997 10 47.4997H13.9999C15.3749 47.4997 16.4999 46.3747 16.4999 44.9997V23.4497C16.4999 22.0747 15.3749 20.9497 13.9999 20.9497Z" stroke="#E8E8E8" stroke-width="4" stroke-linecap="round" stroke-linejoin="round"/>
<path d="M31.9998 12.9749H27.9999C26.6249 12.9749 25.4999 14.0999 25.4999 15.4749V44.9998C25.4999 46.3748 26.6249 47.4998 27.9999 47.4998H31.9998C33.3748 47.4998 34.4998 46.3748 34.4998 44.9998V15.4749C34.4998 14.0999 33.3748 12.9749 31.9998 12.9749Z" stroke="#E8E8E8" stroke-width="4" stroke-linecap="round" stroke-linejoin="round"/>
<path d="M49.9999 5H46C44.625 5 43.5 6.125 43.5 7.5V45C43.5 46.375 44.625 47.5 46 47.5H49.9999C51.3749 47.5 52.4999 46.375 52.4999 45V7.5C52.4999 6.125 51.3749 5 49.9999 5Z" stroke="#E8E8E8" stroke-width="4" stroke-linecap="round" stroke-linejoin="round"/>
</svg>
