<svg width="32" height="32" viewBox="0 0 32 32" fill="none" xmlns="http://www.w3.org/2000/svg">
<g clip-path="url(#clip0_55_1861)">
<path d="M0 0H32V32H0V0Z" fill="#FCFCFC"/>
<path d="M0 0H32V2.46082H0V0ZM0 4.92164H32V7.38246H0V4.92164ZM0 9.84328H32V12.3041H0V9.84328ZM0 14.7649H32V17.2257H0V14.7649ZM0 19.6959H32V22.1567H0V19.6959ZM0 24.6175H32V27.0784H0V24.6175ZM0 29.5392H32V32H0V29.5392Z" fill="#D80027"/>
<path d="M0 0H16V17.2257H0V0Z" fill="#2E52B2"/>
<path d="M2.98165 12.9965L2.73213 11.7988L2.45767 12.9965H1.63428L2.30172 13.7169L2.05221 14.9146L2.73213 14.1754L3.39334 14.9146L3.13759 13.7169L3.81751 12.9965H2.98165ZM6.49354 12.9965L6.23779 11.7988L5.9758 12.9965H5.15241L5.81985 13.7169L5.57034 14.9146L6.23779 14.1754L6.91147 14.9146L6.66196 13.7169L7.3294 12.9965H6.49354ZM10.0179 12.9965L9.74968 11.7988L9.50016 12.9965H8.65806L9.34422 13.7169L9.08223 14.9146L9.74968 14.1754L10.4358 14.9146L10.1738 13.7169L10.8413 12.9965H10.0179ZM13.5236 12.9965L13.274 11.7988L13.0121 12.9965H12.1824L12.8561 13.7169L12.6066 14.9146L13.274 14.1754L13.9477 14.9146L13.6795 13.7169L14.3657 12.9965H13.5236ZM6.23779 7.0456L5.9758 8.24326H5.15241L5.81985 8.98244L5.57034 10.1614L6.23779 9.43156L6.91147 10.1614L6.66196 8.98244L7.3294 8.24326H6.49354L6.23779 7.0456ZM2.73213 7.0456L2.45767 8.24326H1.63428L2.30172 8.98244L2.05221 10.1614L2.73213 9.43156L3.39334 10.1614L3.13759 8.98244L3.81751 8.24326H2.98165L2.73213 7.0456ZM9.74968 7.0456L9.50016 8.24326H8.65806L9.34422 8.98244L9.08223 10.1614L9.74968 9.43156L10.4358 10.1614L10.1738 8.98244L10.8413 8.24326H10.0179L9.74968 7.0456ZM13.274 7.0456L13.0121 8.24326H12.1824L12.8561 8.98244L12.6066 10.1614L13.274 9.43156L13.9477 10.1614L13.6795 8.98244L14.3657 8.24326H13.5236L13.274 7.0456ZM2.73213 2.3111L2.45767 3.49004H1.63428L2.30172 4.22922L2.05221 5.41753L2.73213 4.67835L3.39334 5.41753L3.13759 4.22922L3.81751 3.49004H2.98165L2.73213 2.3111ZM6.23779 2.3111L5.9758 3.49004H5.15241L5.81985 4.22922L5.57034 5.41753L6.23779 4.67835L6.91147 5.41753L6.66196 4.22922L7.3294 3.49004H6.49354L6.23779 2.3111ZM9.74968 2.3111L9.50016 3.49004H8.65806L9.34422 4.22922L9.08223 5.41753L9.74968 4.67835L10.4358 5.41753L10.1738 4.22922L10.8413 3.49004H10.0179L9.74968 2.3111ZM13.274 2.3111L13.0121 3.49004H12.1824L12.8561 4.22922L12.6066 5.41753L13.274 4.67835L13.9477 5.41753L13.6795 4.22922L14.3657 3.49004H13.5236L13.274 2.3111Z" fill="#FCFCFC"/>
</g>
<defs>
<clipPath id="clip0_55_1861">
<rect width="32" height="32" rx="16" fill="white"/>
</clipPath>
</defs>
</svg>
