<svg width="60" height="60" viewBox="0 0 60 60" fill="none" xmlns="http://www.w3.org/2000/svg">
<path d="M25 42.375H15.525C7.1 42.375 5 40.275 5 31.85V16.85C5 8.42495 7.1 6.32495 15.525 6.32495H41.85C50.275 6.32495 52.375 8.42495 52.375 16.85" stroke="#E8E8E8" stroke-width="4" stroke-linecap="round" stroke-linejoin="round"/>
<path d="M25 53.675V42.375" stroke="#E8E8E8" stroke-width="4" stroke-linecap="round" stroke-linejoin="round"/>
<path d="M5 32.375H25" stroke="#E8E8E8" stroke-width="4" stroke-linecap="round" stroke-linejoin="round"/>
<path d="M16.85 53.675H25" stroke="#E8E8E8" stroke-width="4" stroke-linecap="round" stroke-linejoin="round"/>
<path d="M55 32.0001V46.2751C55 52.2001 53.525 53.6751 47.6 53.6751H38.725C32.8 53.6751 31.325 52.2001 31.325 46.2751V32.0001C31.325 26.0751 32.8 24.6001 38.725 24.6001H47.6C53.525 24.6001 55 26.0751 55 32.0001Z" stroke="#E8E8E8" stroke-width="4" stroke-linecap="round" stroke-linejoin="round"/>
<path d="M43.1113 45.625H43.1337" stroke="#E8E8E8" stroke-width="4" stroke-linecap="round" stroke-linejoin="round"/>
</svg>
