<svg width="18" height="19" viewBox="0 0 18 19" fill="none" xmlns="http://www.w3.org/2000/svg">
<path d="M12.5231 0.782715C15.3872 0.782715 17.7174 3.11293 17.7174 5.97705V13.0239C17.7174 15.888 15.3872 18.2183 12.5231 18.2183H5.4762C2.61208 18.2183 0.28186 15.888 0.28186 13.0239V5.97705C0.28186 3.11293 2.61208 0.782715 5.4762 0.782715H12.5231ZM5.4762 2.53662C3.57651 2.53675 2.03602 4.07638 2.03577 5.97607V13.0239C2.03577 14.9238 3.57635 16.4642 5.4762 16.4644H12.524C14.4239 16.4642 15.9645 14.9238 15.9645 13.0239V5.97607C15.9642 4.07637 14.4237 2.53673 12.524 2.53662H5.4762ZM9.00061 4.99072C11.487 4.99097 13.5094 7.01407 13.5094 9.50049C13.5092 11.9867 11.4868 14.009 9.00061 14.0093C6.51419 14.0093 4.49108 11.9868 4.49084 9.50049C4.49084 7.01395 6.51404 4.99072 9.00061 4.99072ZM8.99963 6.74463C7.47806 6.74487 6.24478 7.97883 6.24475 9.50049C6.24475 11.0222 7.47801 12.2561 8.99963 12.2563C10.5214 12.2563 11.7555 11.0223 11.7555 9.50049C11.7555 7.97868 10.5214 6.74463 8.99963 6.74463ZM13.5182 3.94385C14.115 3.94385 14.5992 4.42811 14.5992 5.0249C14.5991 5.6216 14.1149 6.10498 13.5182 6.10498C12.9216 6.10485 12.4382 5.62152 12.4381 5.0249C12.4381 4.4282 12.9215 3.94398 13.5182 3.94385Z" fill="#0A0A0C"/>
</svg>
