<svg width="56" height="56" viewBox="0 0 56 56" fill="none" xmlns="http://www.w3.org/2000/svg">
<path d="M16.94 4.66675H39.0366C40.5533 4.66675 41.9066 4.71348 43.12 4.87681C49.5833 5.60014 51.3333 8.63344 51.3333 16.9401V31.6868C51.3333 39.9935 49.5833 43.0267 43.12 43.7501C41.9066 43.9134 40.5766 43.9601 39.0366 43.9601H16.94C15.4233 43.9601 14.07 43.9134 12.8566 43.7501C6.39328 43.0267 4.64331 39.9935 4.64331 31.6868V16.9401C4.64331 8.63344 6.39328 5.60014 12.8566 4.87681C14.07 4.71348 15.4233 4.66675 16.94 4.66675Z" stroke="#FCFCFC" stroke-width="4" stroke-linecap="round" stroke-linejoin="round"/>
<path d="M31.6866 19.4133H40.2733" stroke="#FCFCFC" stroke-width="3" stroke-linecap="round" stroke-linejoin="round"/>
<path d="M15.7266 32.9235H15.7732H40.2966" stroke="#FCFCFC" stroke-width="3" stroke-linecap="round" stroke-linejoin="round"/>
<path d="M16.3333 51.3333H39.6666" stroke="#FCFCFC" stroke-width="4" stroke-linecap="round" stroke-linejoin="round"/>
<path d="M16.7876 19.3666H16.8086" stroke="#FCFCFC" stroke-width="3" stroke-linecap="round" stroke-linejoin="round"/>
<path d="M24.4871 19.3666H24.5081" stroke="#FCFCFC" stroke-width="3" stroke-linecap="round" stroke-linejoin="round"/>
</svg>
