<svg width="56" height="57" viewBox="0 0 56 57" fill="none" xmlns="http://www.w3.org/2000/svg">
<path d="M40.3433 10.1601L40.18 19.0033C40.1566 20.2167 40.9268 21.8267 41.9068 22.5501L47.6934 26.9367C51.4034 29.7367 50.7967 33.1667 46.3634 34.5667L38.8267 36.9233C37.5667 37.32 36.2367 38.6967 35.9101 39.9801L34.1134 46.84C32.69 52.2533 29.1433 52.79 26.2033 48.03L22.0966 41.38C21.35 40.1667 19.5767 39.2567 18.1767 39.3267L10.3834 39.7234C4.80674 40.0034 3.22006 36.7834 6.86005 32.5367L11.48 27.17C12.3433 26.1667 12.74 24.3 12.3433 23.04L9.98678 15.5033C8.61012 11.07 11.0834 8.62005 15.4934 10.0667L22.3768 12.3301C23.5434 12.7034 25.2934 12.4467 26.2734 11.7234L33.4601 6.54336C37.3334 3.74336 40.4367 5.37673 40.3433 10.1601Z" stroke="#FCFCFC" stroke-width="4" stroke-linecap="round" stroke-linejoin="round"/>
<path d="M51.1231 51.8333L44.0532 44.7633" stroke="#FCFCFC" stroke-width="4" stroke-linecap="round" stroke-linejoin="round"/>
</svg>
