<svg width="60" height="60" viewBox="0 0 60 60" fill="none" xmlns="http://www.w3.org/2000/svg">
<path d="M21.25 47.4248H20C10 47.4248 5 44.9248 5 32.4248V19.9248C5 9.9248 10 4.9248 20 4.9248H40C50 4.9248 55 9.9248 55 19.9248V32.4248C55 42.4248 50 47.4248 40 47.4248H38.75C37.975 47.4248 37.225 47.7999 36.75 48.4249L33 53.4249C31.35 55.6249 28.65 55.6249 27 53.4249L23.25 48.4249C22.85 47.8749 21.95 47.4248 21.25 47.4248Z" stroke="#E8E8E8" stroke-width="4" stroke-miterlimit="10" stroke-linecap="round" stroke-linejoin="round"/>
<path d="M20 21.75L15 26.75L20 31.75" stroke="#E8E8E8" stroke-width="4" stroke-miterlimit="10" stroke-linecap="round" stroke-linejoin="round"/>
<path d="M40 21.75L45 26.75L40 31.75" stroke="#E8E8E8" stroke-width="4" stroke-miterlimit="10" stroke-linecap="round" stroke-linejoin="round"/>
<path d="M32.5 20.9253L27.5 32.5754" stroke="#E8E8E8" stroke-width="4" stroke-miterlimit="10" stroke-linecap="round" stroke-linejoin="round"/>
</svg>
