<svg width="120" height="120" viewBox="0 0 120 120" fill="none" xmlns="http://www.w3.org/2000/svg">
<path d="M42.5 94.8496H40C20 94.8496 10 89.8496 10 64.8496V39.8496C10 19.8496 20 9.84961 40 9.84961H80C100 9.84961 110 19.8496 110 39.8496V64.8496C110 84.8496 100 94.8496 80 94.8496H77.5C75.95 94.8496 74.4501 95.5997 73.5001 96.8497L66.0001 106.85C62.7001 111.25 57.2999 111.25 53.9999 106.85L46.4999 96.8497C45.6999 95.7497 43.9 94.8496 42.5 94.8496Z" stroke="#E8E8E8" stroke-width="4" stroke-miterlimit="10" stroke-linecap="round" stroke-linejoin="round"/>
<path d="M40 43.5L30 53.5L40 63.5" stroke="#E8E8E8" stroke-width="4" stroke-miterlimit="10" stroke-linecap="round" stroke-linejoin="round"/>
<path d="M80 43.5L90 53.5L80 63.5" stroke="#E8E8E8" stroke-width="4" stroke-miterlimit="10" stroke-linecap="round" stroke-linejoin="round"/>
<path d="M65 41.8506L55 65.1508" stroke="#E8E8E8" stroke-width="4" stroke-miterlimit="10" stroke-linecap="round" stroke-linejoin="round"/>
</svg>
