<svg width="120" height="121" viewBox="0 0 120 121" fill="none" xmlns="http://www.w3.org/2000/svg">
<path d="M50 85.2499H31.05C14.2 85.2499 10 81.0499 10 64.1999V34.1999C10 17.3499 14.2 13.1499 31.05 13.1499H83.7C100.55 13.1499 104.75 17.3499 104.75 34.1999" stroke="#E8E8E8" stroke-width="4" stroke-linecap="round" stroke-linejoin="round"/>
<path d="M50 107.85V85.25" stroke="#E8E8E8" stroke-width="4" stroke-linecap="round" stroke-linejoin="round"/>
<path d="M10 65.25H50" stroke="#E8E8E8" stroke-width="4" stroke-linecap="round" stroke-linejoin="round"/>
<path d="M33.7 107.85H50" stroke="#E8E8E8" stroke-width="4" stroke-linecap="round" stroke-linejoin="round"/>
<path d="M110 64.5V93.05C110 104.9 107.05 107.85 95.1999 107.85H77.4499C65.5999 107.85 62.6499 104.9 62.6499 93.05V64.5C62.6499 52.65 65.5999 49.7 77.4499 49.7H95.1999C107.05 49.7 110 52.65 110 64.5Z" stroke="#E8E8E8" stroke-width="4" stroke-linecap="round" stroke-linejoin="round"/>
<path d="M86.2225 91.75H86.2674" stroke="#E8E8E8" stroke-width="4" stroke-linecap="round" stroke-linejoin="round"/>
</svg>
