<svg width="56" height="57" viewBox="0 0 56 57" fill="none" xmlns="http://www.w3.org/2000/svg">
<path d="M23.3333 40.05H14.49C6.62663 40.05 4.66663 38.09 4.66663 30.2267V16.2267C4.66663 8.36332 6.62663 6.40332 14.49 6.40332H39.06C46.9233 6.40332 48.8833 8.36332 48.8833 16.2267" stroke="#FCFCFC" stroke-width="4" stroke-linecap="round" stroke-linejoin="round"/>
<path d="M23.3334 50.5967V40.05" stroke="#FCFCFC" stroke-width="4" stroke-linecap="round" stroke-linejoin="round"/>
<path d="M4.66663 30.7167H23.3333" stroke="#FCFCFC" stroke-width="4" stroke-linecap="round" stroke-linejoin="round"/>
<path d="M15.7267 50.5967H23.3334" stroke="#FCFCFC" stroke-width="4" stroke-linecap="round" stroke-linejoin="round"/>
<path d="M51.3334 30.3666V43.69C51.3334 49.22 49.9567 50.5966 44.4267 50.5966H36.1434C30.6134 50.5966 29.2367 49.22 29.2367 43.69V30.3666C29.2367 24.8366 30.6134 23.46 36.1434 23.46H44.4267C49.9567 23.46 51.3334 24.8366 51.3334 30.3666Z" stroke="#FCFCFC" stroke-width="4" stroke-linecap="round" stroke-linejoin="round"/>
<path d="M40.2372 43.0833H40.2582" stroke="#FCFCFC" stroke-width="4" stroke-linecap="round" stroke-linejoin="round"/>
</svg>
