<svg width="56" height="57" viewBox="0 0 56 57" fill="none" xmlns="http://www.w3.org/2000/svg">
<path d="M28 35.5C31.866 35.5 35 32.366 35 28.5C35 24.634 31.866 21.5 28 21.5C24.134 21.5 21 24.634 21 28.5C21 32.366 24.134 35.5 28 35.5Z" stroke="#FCFCFC" stroke-width="4" stroke-miterlimit="10" stroke-linecap="round" stroke-linejoin="round"/>
<path d="M4.66675 30.5534V26.4467C4.66675 24.0201 6.65008 22.0134 9.10008 22.0134C13.3234 22.0134 15.0501 19.0267 12.9267 15.3634C11.7134 13.2634 12.4367 10.5334 14.5601 9.32006L18.5967 7.01006C20.4401 5.91339 22.8201 6.56672 23.9167 8.41006L24.1734 8.85339C26.2734 12.5167 29.7267 12.5167 31.8501 8.85339L32.1067 8.41006C33.2034 6.56672 35.5834 5.91339 37.4267 7.01006L41.4634 9.32006C43.5867 10.5334 44.3101 13.2634 43.0967 15.3634C40.9734 19.0267 42.7001 22.0134 46.9234 22.0134C49.3501 22.0134 51.3567 23.9967 51.3567 26.4467V30.5534C51.3567 32.9801 49.3734 34.9867 46.9234 34.9867C42.7001 34.9867 40.9734 37.9734 43.0967 41.6367C44.3101 43.7601 43.5867 46.4667 41.4634 47.6801L37.4267 49.9901C35.5834 51.0867 33.2034 50.4334 32.1067 48.5901L31.8501 48.1467C29.7501 44.4834 26.2967 44.4834 24.1734 48.1467L23.9167 48.5901C22.8201 50.4334 20.4401 51.0867 18.5967 49.9901L14.5601 47.6801C12.4367 46.4667 11.7134 43.7367 12.9267 41.6367C15.0501 37.9734 13.3234 34.9867 9.10008 34.9867C6.65008 34.9867 4.66675 32.9801 4.66675 30.5534Z" stroke="#FCFCFC" stroke-width="4" stroke-miterlimit="10" stroke-linecap="round" stroke-linejoin="round"/>
</svg>
